<svg viewBox="0 0 25 24" fill="none" xmlns="http://www.w3.org/2000/svg"><path d="M14.7955 17.5005L14.969 17.4992C15.7533 17.4992 16.1648 17.8245 16.6739 18.5947L16.9265 18.9855C17.1239 19.278 17.2473 19.4002 17.4023 19.4644C17.6806 19.5789 17.9114 19.5223 18.758 19.1147L19.0171 18.9887C19.5468 18.729 19.9081 18.5799 20.3157 18.4777C20.3771 18.4623 20.441 18.4592 20.5037 18.4685C20.5664 18.4778 20.6266 18.4994 20.6809 18.532C20.7352 18.5646 20.7826 18.6076 20.8203 18.6585C20.858 18.7094 20.8853 18.7672 20.9007 18.8287C20.9161 18.8901 20.9192 18.954 20.9098 19.0167C20.9005 19.0793 20.8789 19.1395 20.8463 19.1939C20.8138 19.2482 20.7708 19.2955 20.7199 19.3333C20.669 19.371 20.6111 19.3983 20.5497 19.4137C20.2964 19.4767 20.0528 19.5679 19.7352 19.7145L18.9901 20.0726C17.9821 20.5483 17.6401 20.6055 17.0352 20.3554C16.6334 20.1902 16.4052 19.9504 16.0709 19.4394L15.9455 19.2439C15.5585 18.6345 15.3638 18.4635 14.9684 18.4635L14.8668 18.4661C14.5885 18.4828 14.4078 18.6101 13.207 19.5011C12.0871 20.3329 11.2328 20.7296 10.147 20.7296C8.82269 20.7296 7.57426 20.4866 6.40683 19.9999L8.25955 19.5718C8.8664 19.7004 9.49512 19.7653 10.1463 19.7653C10.9756 19.7653 11.6635 19.4458 12.6323 18.7271L13.378 18.1768C14.195 17.5828 14.377 17.5095 14.7955 17.5005ZM18.8435 6.07052C19.36 6.5872 19.6501 7.28784 19.6501 8.01838C19.6501 8.74892 19.36 9.44955 18.8435 9.96623L18.1775 10.6322C18.9181 11.5335 18.8911 12.4882 18.2033 13.1786L16.274 15.1084C16.1835 15.1988 16.0608 15.2495 15.9329 15.2494C15.805 15.2493 15.6823 15.1983 15.592 15.1078C15.5016 15.0173 15.4509 14.8945 15.451 14.7666C15.4512 14.6387 15.5021 14.5161 15.5926 14.4257L17.5199 12.4978C17.8323 12.1854 17.8683 11.7971 17.4942 11.3162L10.6844 18.1267C10.4927 18.3183 10.251 18.4521 9.9869 18.513L6.07833 19.4156C5.99859 19.4341 5.91546 19.432 5.83676 19.4094C5.75807 19.3869 5.6864 19.3447 5.62852 19.2868C5.57064 19.2289 5.52845 19.1573 5.50592 19.0786C5.4834 18.9999 5.48127 18.9168 5.49976 18.837L6.40169 14.9284C6.46247 14.6641 6.59635 14.4222 6.78805 14.2303L14.9472 6.07052C15.203 5.81472 15.5067 5.6118 15.8409 5.47336C16.1751 5.33493 16.5333 5.26367 16.895 5.26367C17.2568 5.26367 17.615 5.33493 17.9492 5.47336C18.2834 5.6118 18.5871 5.81472 18.8429 6.07052H18.8435Z" fill="currentColor"></path></svg>